<?xml version="1.0" encoding="UTF-8" standalone="no"?>
<svg
   xmlns:dc="http://purl.org/dc/elements/1.1/"
   xmlns:cc="http://creativecommons.org/ns#"
   xmlns:rdf="http://www.w3.org/1999/02/22-rdf-syntax-ns#"
   xmlns:svg="http://www.w3.org/2000/svg"
   xmlns="http://www.w3.org/2000/svg"
   xmlns:xlink="http://www.w3.org/1999/xlink"
   xmlns:sodipodi="http://sodipodi.sourceforge.net/DTD/sodipodi-0.dtd"
   xmlns:inkscape="http://www.inkscape.org/namespaces/inkscape"
   width="650mm"
   height="380mm"
   viewBox="0 0 650 380"
   version="1.1"
   id="svg8"
   inkscape:version="1.0.2-2 (e86c870879, 2021-01-15)"
   sodipodi:docname="balloon.svg">
  <defs
     id="defs2">
    <linearGradient
       inkscape:collect="always"
       id="linearGradient1071">
      <stop
         style="stop-color:#2b0000;stop-opacity:1"
         offset="0"
         id="stop1067" />
      <stop
         style="stop-color:#000000;stop-opacity:1"
         offset="1"
         id="stop1069" />
    </linearGradient>
    <linearGradient
       inkscape:collect="always"
       id="linearGradient1060">
      <stop
         style="stop-color:#000000;stop-opacity:1;"
         offset="0"
         id="stop1056" />
      <stop
         style="stop-color:#19cc9d;stop-opacity:0.73333335"
         offset="1"
         id="stop1058" />
    </linearGradient>
    <radialGradient
       inkscape:collect="always"
       xlink:href="#linearGradient1060"
       id="radialGradient1062"
       cx="156.31421"
       cy="228.03409"
       fx="156.31421"
       fy="228.03409"
       r="64.139599"
       gradientTransform="matrix(-0.06147319,-1.8789726,5.8226871,-0.19044477,-1038.3175,519.95157)"
       gradientUnits="userSpaceOnUse" />
    <radialGradient
       inkscape:collect="always"
       xlink:href="#linearGradient1071"
       id="radialGradient1073"
       cx="216.90903"
       cy="270.16159"
       fx="216.90903"
       fy="270.16159"
       r="29.362103"
       gradientTransform="matrix(-0.01033444,-0.68330571,0.75826582,-0.03300408,78.666795,350.19929)"
       gradientUnits="userSpaceOnUse" />
  </defs>
  <sodipodi:namedview
     id="base"
     pagecolor="#ffffff"
     bordercolor="#666666"
     borderopacity="1.0"
     inkscape:pageopacity="0.0"
     inkscape:pageshadow="2"
     inkscape:zoom="0.23728628"
     inkscape:cx="1169.2644"
     inkscape:cy="580.74243"
     inkscape:document-units="mm"
     inkscape:current-layer="layer1"
     inkscape:document-rotation="0"
     showgrid="false"
     inkscape:pagecheckerboard="true"
     height="380mm"
     inkscape:window-width="1366"
     inkscape:window-height="705"
     inkscape:window-x="-8"
     inkscape:window-y="-8"
     inkscape:window-maximized="1" />
  <metadata
     id="metadata5">
    <rdf:RDF>
      <cc:Work
         rdf:about="">
        <dc:format>image/svg+xml</dc:format>
        <dc:type
           rdf:resource="http://purl.org/dc/dcmitype/StillImage" />
        <dc:title />
      </cc:Work>
    </rdf:RDF>
  </metadata>
  <g
     inkscape:label="Layer 1"
     inkscape:groupmode="layer"
     id="layer1">
    <ellipse
       style="opacity:1;fill:url(#radialGradient1062);fill-opacity:1;fill-rule:evenodd;stroke:#000000;stroke-width:0.6;stroke-miterlimit:4;stroke-dasharray:none;stroke-opacity:1"
       id="path1054"
       cx="281.37265"
       cy="82.04734"
       rx="61.123627"
       ry="75.31575"
       inkscape:export-xdpi="19.642277"
       inkscape:export-ydpi="19.642277" />
    <path
       id="rect1064"
       style="fill:url(#radialGradient1073);fill-opacity:1;fill-rule:evenodd;stroke:#000000;stroke-width:0.580075;stroke-miterlimit:4;stroke-dasharray:none;stroke-opacity:1"
       d="m 278.32369,167.59232 c -0.25941,-0.21156 3.94743,3.08414 0.98805,10.80037 a 3.5435106,0.24099345 0 0 0 -0.077,0 3.5435106,0.24099345 0 0 0 -3.40186,0.24133 3.5435106,0.24099345 0 0 0 3.28559,0.2403 c -0.22492,0.54521 -0.48615,1.11182 -0.78548,1.69964 a 3.4726406,0.12049673 0 0 0 -1.94769,0.10852 3.4726406,0.12049673 0 0 0 1.8371,0.10593 c -0.2848,0.54683 -0.6009,1.11086 -0.95601,1.69447 a 3.4726406,0.12049673 0 0 0 -1.37925,0.0966 3.4726406,0.12049673 0 0 0 1.26091,0.0925 c -0.76063,1.23123 -1.68428,2.54415 -2.79725,3.94033 0.0904,-2.03777 0.17625,-4.07611 0.26614,-6.11384 0.01,-0.22657 0,-0.4544 0,-0.68161 l -0.63614,7.25795 c -0.46213,0.56593 -0.95485,1.14499 -1.48053,1.73788 l 1.33119,-0.0315 -1.2051,13.74903 c 0.0325,-0.12796 0.0665,-0.25492 0.0863,-0.38964 0.0637,-0.43339 0.21981,-1.65787 0.25063,-2.1301 0.011,-0.16937 0,-0.34067 0,-0.51108 0,-0.62097 0.11535,-0.78459 0.20051,-1.36375 0.0178,-0.12098 -0.032,-0.31702 0,-0.42581 0.007,-0.0254 0.0383,0.0201 0.0501,0 0.0394,-0.0671 0.0805,-0.97261 0.10025,-1.10743 0.0439,-0.29854 0.2247,-0.58796 0.25064,-0.85265 0.0153,-0.15595 0.009,-0.37191 0.0501,-0.51109 0.0211,-0.0718 0.074,-0.10318 0.10025,-0.17001 0.2308,-0.58863 0.18368,0.48353 0.30076,-1.61902 0.0868,-1.55821 0.16283,-3.11797 0.23565,-4.67827 l 5.1449,-0.12093 2.98845,180.02778 -1.11466,-79.16727 3.34501,-41.25691 -4.88704,-59.61135 10.8319,-0.25528 c -1.75431,-1.71518 -3.14026,-3.29493 -4.22868,-4.74906 0.0601,-0.111 0.11995,-0.22323 0.17518,-0.34158 -0.0622,0.11262 -0.12511,0.21863 -0.1881,0.32401 -1.50703,-2.01646 -2.43822,-3.78944 -2.96054,-5.33766 0.59877,0.10931 2.76345,0.48508 3.58944,1.36271 -0.49038,-0.73711 -1.57056,-1.27953 -3.60081,-1.39578 -1.96892,-5.88844 1.94362,-8.5234 2.19676,-9.00927 l -5.26738,-0.4253 c -1.34229,-0.73884 -1.87033,-1.1563 -1.95233,-1.22318 z m 8.62376,12.05353 c 0.20368,0.30617 0.3062,0.6456 0.33228,1.00252 -0.003,-0.102 -0.008,-0.208 -0.0134,-0.32763 -0.0125,-0.25255 -0.13172,-0.47605 -0.31884,-0.67489 z m -0.4408,3.65094 c 0.2321,-0.42006 0.44236,-0.87321 0.58653,-1.33119 -0.0802,0.0601 -0.17132,0.10953 -0.24495,0.39584 -0.0833,0.32392 -0.20336,0.63915 -0.34158,0.93535 z m 0.58653,-1.33119 c 0.11455,-0.0858 0.20586,-0.20062 0.19275,-1.05213 -0.009,0.34382 -0.0815,0.69895 -0.19275,1.05213 z m -14.46682,20.56464 c -0.0244,0.0956 -0.0481,0.19184 -0.0641,0.29197 -0.0132,0.0822 0.008,0.17124 0,0.25528 -0.0526,0.53726 -0.18071,1.08412 -0.25063,1.61902 -0.0334,0.28402 -0.0663,0.56814 -0.0997,0.85215 0,0.0852 0.008,0.17174 0,0.2558 -0.0313,0.31964 -0.12785,0.50698 -0.15038,0.85163 -0.0623,0.95416 -0.0501,1.9346 -0.0501,2.89749 z"
       inkscape:export-xdpi="11.31"
       inkscape:export-ydpi="11.31" />
    <path
       id="path12413"
       style="opacity:1;fill:#fff1d5;fill-opacity:0.196787;fill-rule:evenodd;stroke:none;stroke-width:0;stroke-linecap:round;stroke-linejoin:round;stroke-miterlimit:4;stroke-dasharray:none;stroke-opacity:0.742972;paint-order:stroke markers fill"
       d="m 99.001213,90.110661 c -14.5398,6.662162 3.960917,49.320959 -13.25535,37.446169 -9.38441,-35.111201 28.909857,-78.213914 31.494397,-42.091477 -13.56723,8.21442 -3.69924,-2.016838 -18.239047,4.645308 z"
       sodipodi:nodetypes="sccs" />
    <ellipse
       style="fill:#f9f9f9;fill-opacity:0.361446;fill-rule:evenodd;stroke:#35d0fb;stroke-width:0;stroke-linecap:round;stroke-linejoin:round;paint-order:stroke markers fill"
       id="path10776"
       cx="89.864029"
       cy="131.40541"
       rx="8.174242"
       ry="13.647296"
       transform="matrix(0.89163102,0.45276278,-0.27767181,0.96067599,0,0)" />
  </g>
</svg>
