<?xml version="1.0" encoding="UTF-8" standalone="no"?>
<svg
   xmlns:dc="http://purl.org/dc/elements/1.1/"
   xmlns:cc="http://creativecommons.org/ns#"
   xmlns:rdf="http://www.w3.org/1999/02/22-rdf-syntax-ns#"
   xmlns:svg="http://www.w3.org/2000/svg"
   xmlns="http://www.w3.org/2000/svg"
   xmlns:xlink="http://www.w3.org/1999/xlink"
   xmlns:sodipodi="http://sodipodi.sourceforge.net/DTD/sodipodi-0.dtd"
   xmlns:inkscape="http://www.inkscape.org/namespaces/inkscape"
   width="210mm"
   height="297mm"
   viewBox="0 0 210 297"
   version="1.1"
   id="svg2113"
   inkscape:version="1.0.2-2 (e86c870879, 2021-01-15)"
   sodipodi:docname="balloon shooter.svg"
   inkscape:export-filename="C:\Users\Lontsi Anderson\Desktop\Projects\AlphaParty\.png"
   inkscape:export-xdpi="17.66"
   inkscape:export-ydpi="17.66">
  <defs
     id="defs2107">
    <linearGradient
       inkscape:collect="always"
       id="linearGradient12834">
      <stop
         style="stop-color:#35d0fb;stop-opacity:0.37349397"
         offset="0"
         id="stop12830" />
      <stop
         style="stop-color:#35d2fb;stop-opacity:0.54618472"
         offset="1"
         id="stop12832" />
    </linearGradient>
    <linearGradient
       inkscape:collect="always"
       id="linearGradient12582">
      <stop
         style="stop-color:#1ebaff;stop-opacity:1"
         offset="0"
         id="stop12578" />
      <stop
         style="stop-color:#1cb1d7;stop-opacity:0.00803213"
         offset="1"
         id="stop12580" />
    </linearGradient>
    <linearGradient
       inkscape:collect="always"
       id="linearGradient12545">
      <stop
         style="stop-color:#1cb1d7;stop-opacity:1;"
         offset="0"
         id="stop12541" />
      <stop
         style="stop-color:#1cb1d7;stop-opacity:0.76305223"
         offset="1"
         id="stop12543" />
    </linearGradient>
    <linearGradient
       inkscape:collect="always"
       id="linearGradient4151">
      <stop
         style="stop-color:#0b2228;stop-opacity:1"
         offset="0"
         id="stop4147" />
      <stop
         style="stop-color:#de8787;stop-opacity:1"
         offset="1"
         id="stop4149" />
    </linearGradient>
    <linearGradient
       inkscape:collect="always"
       id="linearGradient4099">
      <stop
         style="stop-color:#8e8f8d;stop-opacity:0.95686269"
         offset="0"
         id="stop4095" />
      <stop
         style="stop-color:#ffffff;stop-opacity:0.86345381"
         offset="1"
         id="stop4097" />
    </linearGradient>
    <pattern
       id="EMFhbasepattern"
       patternUnits="userSpaceOnUse"
       width="6"
       height="6"
       x="0"
       y="0" />
    <pattern
       id="EMFhbasepattern-3"
       patternUnits="userSpaceOnUse"
       width="6"
       height="6"
       x="0"
       y="0" />
    <linearGradient
       inkscape:collect="always"
       xlink:href="#linearGradient4099"
       id="linearGradient4101"
       x1="107.04326"
       y1="165.91258"
       x2="107.88354"
       y2="181.78758"
       gradientUnits="userSpaceOnUse"
       gradientTransform="matrix(1.0565224,0,0,1.4608949,-7.3640415,-54.837346)" />
    <radialGradient
       inkscape:collect="always"
       xlink:href="#linearGradient4151"
       id="radialGradient4153"
       cx="196.96336"
       cy="38.845325"
       fx="196.96336"
       fy="38.845325"
       r="59.26459"
       gradientTransform="matrix(0.02624645,-2.0539771,3.7364373,0.04773005,-47.503193,623.44223)"
       gradientUnits="userSpaceOnUse" />
    <linearGradient
       inkscape:collect="always"
       xlink:href="#linearGradient4099"
       id="linearGradient4197"
       gradientUnits="userSpaceOnUse"
       gradientTransform="translate(-252.42308,-96.222767)"
       x1="107.04326"
       y1="165.91258"
       x2="107.88354"
       y2="181.78758" />
    <radialGradient
       inkscape:collect="always"
       xlink:href="#linearGradient4151-5"
       id="radialGradient4153-0"
       cx="186.64815"
       cy="38.917786"
       fx="186.64815"
       fy="38.917786"
       r="59.264591"
       gradientTransform="matrix(0.02627204,-2.0516505,3.7400799,0.04767598,-578.98966,584.52212)"
       gradientUnits="userSpaceOnUse" />
    <linearGradient
       inkscape:collect="always"
       id="linearGradient4151-5">
      <stop
         style="stop-color:#0b2228;stop-opacity:1"
         offset="0"
         id="stop4147-6" />
      <stop
         style="stop-color:#35d0fb;stop-opacity:1"
         offset="1"
         id="stop4149-1" />
    </linearGradient>
    <linearGradient
       inkscape:collect="always"
       xlink:href="#linearGradient4099"
       id="linearGradient4101-9"
       x1="107.04326"
       y1="165.91258"
       x2="107.88354"
       y2="181.78758"
       gradientUnits="userSpaceOnUse"
       gradientTransform="matrix(1.0565224,0,0,1.4608949,-422.87787,-181.74831)" />
    <filter
       inkscape:collect="always"
       style="color-interpolation-filters:sRGB"
       id="filter2225"
       x="-0.020790242"
       width="1.0415805"
       y="-0.18071518"
       height="1.3614304">
      <feGaussianBlur
         inkscape:collect="always"
         stdDeviation="1.0464926"
         id="feGaussianBlur2227" />
    </filter>
    <radialGradient
       inkscape:collect="always"
       xlink:href="#linearGradient12582"
       id="radialGradient12547"
       cx="112.85399"
       cy="53.009552"
       fx="112.85399"
       fy="53.009552"
       r="65.503429"
       gradientTransform="matrix(0.14856397,3.8403033,-1.6918095,0.06880325,185.92246,-431.03695)"
       gradientUnits="userSpaceOnUse" />
    <radialGradient
       inkscape:collect="always"
       xlink:href="#linearGradient12545"
       id="radialGradient12547-5"
       cx="112.85399"
       cy="53.009552"
       fx="112.85399"
       fy="53.009552"
       r="65.503426"
       gradientTransform="matrix(0.18325483,4.7083214,-2.0868603,0.08435474,-205.63019,-834.41018)"
       gradientUnits="userSpaceOnUse" />
    <radialGradient
       inkscape:collect="always"
       xlink:href="#linearGradient12834"
       id="radialGradient12836"
       cx="418.52939"
       cy="-788.85089"
       fx="418.52939"
       fy="-788.85089"
       r="74.286131"
       gradientTransform="matrix(0.07853484,4.5443078,-2.2253573,0.03845056,-1687.218,-2140.4178)"
       gradientUnits="userSpaceOnUse" />
    <filter
       inkscape:collect="always"
       style="color-interpolation-filters:sRGB"
       id="filter12902"
       x="-0.028483257"
       width="1.0569665"
       y="-0.03144105"
       height="1.0628821">
      <feGaussianBlur
         inkscape:collect="always"
         stdDeviation="1.7056158"
         id="feGaussianBlur12904" />
    </filter>
    <radialGradient
       inkscape:collect="always"
       xlink:href="#linearGradient4151"
       id="radialGradient4153-08"
       cx="196.96336"
       cy="38.845325"
       fx="196.96336"
       fy="38.845325"
       r="59.264591"
       gradientTransform="matrix(0.02624645,-2.0539771,3.7364373,0.04773005,-1311.6402,1140.7469)"
       gradientUnits="userSpaceOnUse" />
    <filter
       inkscape:collect="always"
       style="color-interpolation-filters:sRGB"
       id="filter2225-6"
       x="-0.020790242"
       width="1.0415806"
       y="-0.18071517"
       height="1.3614304">
      <feGaussianBlur
         inkscape:collect="always"
         stdDeviation="1.0464926"
         id="feGaussianBlur2227-5" />
    </filter>
    <radialGradient
       inkscape:collect="always"
       xlink:href="#linearGradient12582"
       id="radialGradient12547-0"
       cx="112.85399"
       cy="53.009552"
       fx="112.85399"
       fy="53.009552"
       r="65.503426"
       gradientTransform="matrix(0.14856397,3.8403033,-1.6918095,0.06880325,-1078.2145,86.26769)"
       gradientUnits="userSpaceOnUse" />
    <linearGradient
       inkscape:collect="always"
       xlink:href="#linearGradient4099"
       id="linearGradient996"
       gradientUnits="userSpaceOnUse"
       gradientTransform="matrix(1.0565224,0,0,1.4608949,-1271.501,462.46729)"
       x1="107.04326"
       y1="165.91258"
       x2="107.88354"
       y2="181.78758" />
  </defs>
  <sodipodi:namedview
     id="base"
     pagecolor="#ffffff"
     bordercolor="#666666"
     borderopacity="1.0"
     inkscape:pageopacity="0"
     inkscape:pageshadow="2"
     inkscape:zoom="0.0875"
     inkscape:cx="-3795.1942"
     inkscape:cy="601.08759"
     inkscape:document-units="mm"
     inkscape:current-layer="layer2"
     inkscape:document-rotation="0"
     showgrid="false"
     showguides="true"
     inkscape:window-width="1366"
     inkscape:window-height="705"
     inkscape:window-x="-8"
     inkscape:window-y="-8"
     inkscape:window-maximized="1"
     inkscape:pagecheckerboard="true" />
  <metadata
     id="metadata2110">
    <rdf:RDF>
      <cc:Work
         rdf:about="">
        <dc:format>image/svg+xml</dc:format>
        <dc:type
           rdf:resource="http://purl.org/dc/dcmitype/StillImage" />
        <dc:title />
      </cc:Work>
    </rdf:RDF>
  </metadata>
  <g
     inkscape:groupmode="layer"
     id="layer2"
     inkscape:label="Backend"
     style="opacity:1;">
    <path
       id="path12477"
       style="fill:url(#radialGradient12836);fill-opacity:1;fill-rule:evenodd;stroke:#000000;stroke-width:0;stroke-linecap:round;stroke-linejoin:round;stroke-miterlimit:4;stroke-dasharray:none;stroke-opacity:1;paint-order:stroke markers fill"
       d="M 101.12641,-268.82434 V 15.923505 c -8.324844,2.39093 -14.029429,9.753797 -14.02959,18.107937 -1.69e-4,10.437579 8.799498,18.899016 19.65459,18.899096 10.85529,1.96e-4 19.65531,-8.461324 19.65514,-18.899096 -2.7e-4,-8.369179 -5.72522,-15.741457 -14.07047,-18.119307 V -268.82434 c -0.48117,-1.96895 -1.03688,-3.58269 -1.63876,-4.86963 -2.75585,-5.89259 -6.47944,-4.93321 -8.44612,0.15346 -0.50757,1.31278 -0.89811,2.90044 -1.12479,4.71617 z"
       sodipodi:nodetypes="cccccccssc"
       inkscape:export-xdpi="17.66"
       inkscape:export-ydpi="17.66" />
    <path
       sodipodi:type="spiral"
       style="fill:#1cb1d7;fill-opacity:0.148594;fill-rule:evenodd;stroke:#0077bb;stroke-width:2.07725;stroke-miterlimit:4;stroke-dasharray:none;stroke-opacity:0.706827;filter:url(#filter12902)"
       id="path12475"
       sodipodi:cx="320.5238"
       sodipodi:cy="86.178574"
       sodipodi:expansion="1"
       sodipodi:revolution="2.92891"
       sodipodi:radius="78.633583"
       sodipodi:argument="-18.383656"
       sodipodi:t0="0"
       d="m 320.5238,86.178574 c 3.60785,1.814095 -0.66538,5.758318 -3.01514,5.996481 -6.36772,0.645407 -9.83504,-6.637247 -8.97782,-12.026772 1.53336,-9.640597 12.26847,-14.26208 21.0384,-11.959153 12.87023,3.379638 18.78633,17.963787 14.94049,30.050026 -5.1259,16.109054 -23.68025,23.349954 -39.06165,17.921824 -19.35593,-6.83075 -27.93353,-29.406403 -20.90316,-48.073279 8.51472,-22.608089 35.13793,-32.528585 57.0849,-23.884496 25.86375,10.18676 37.13084,40.872795 26.86583,66.096535 -11.85135,29.1218 -46.60989,41.73788 -75.10816,29.84716 C 261.00595,126.63592 247.0392,87.798351 260.55899,56.027119 275.72615,20.384597 318.64736,5.0659744 353.6904,20.21728 c 26.76268,11.571184 44.43516,38.466921 45.45245,67.473233"
       transform="matrix(1,0,0,0.1562095,-212.42108,13.562795)"
       inkscape:export-xdpi="17.66"
       inkscape:export-ydpi="17.66" />
    <path
       id="path4045-0-5"
       style="fill:#8fcaff;fill-opacity:1;fill-rule:evenodd;stroke:#1f6668;stroke-width:0.926;stroke-miterlimit:4;stroke-dasharray:none;stroke-opacity:0.987952"
       d="m -185.12456,44.310093 c -2.54964,6.05338 2.09866,1.37321 12.10316,3.9283 10.00448,2.5551 21.57667,11.37791 24.12632,5.32454 2.54966,-6.0534 -3.49368,-13.03195 -13.49818,-15.58705 -10.00449,-2.5551 -20.18164,0.28082 -22.7313,6.33421 z"
       sodipodi:nodetypes="sssss"
       inkscape:export-xdpi="17.689013"
       inkscape:export-ydpi="17.689013" />
    <ellipse
       style="fill:#005274;fill-opacity:1;fill-rule:evenodd;stroke:#40638d;stroke-width:0.4;stroke-miterlimit:4;stroke-dasharray:none;stroke-opacity:0"
       id="path4115-7-1-4"
       cx="164.32996"
       cy="41.500557"
       rx="4.1577382"
       ry="3.4017856"
       inkscape:export-xdpi="17.689013"
       inkscape:export-ydpi="17.689013"
       transform="scale(-1,1)" />
    <path
       id="path4016"
       style="fill:url(#radialGradient4153);fill-opacity:1;fill-rule:evenodd;stroke:#000000;stroke-width:0.600001;stroke-opacity:0.911647"
       d="M 108.10272,27.024707 C 99.760838,57.182345 80.65868,95.60989 58.769752,125.69278 l -0.03895,0.88621 a 58.964287,60.098212 1.0476859 0 0 -11.018174,33.88379 58.964287,60.098212 1.0476859 0 0 57.855642,61.16623 58.964287,60.098212 1.0476859 0 0 60.05285,-59.00996 58.964287,60.098212 1.0476859 0 0 -10.61606,-35.52867 l 0.49573,-0.51243 c 0,0 -42.71732,-51.457597 -47.39807,-99.553243 z"
       inkscape:export-xdpi="16.059999"
       inkscape:export-ydpi="16.059999" />
    <path
       id="path4045-7"
       style="fill:#c8b7be;fill-opacity:1;fill-rule:evenodd;stroke:#1e6668;stroke-width:0.688097;stroke-miterlimit:4;stroke-dasharray:none;stroke-opacity:1"
       d="m 63.074652,162.40187 c -3.251803,2.86837 2.01784,0.97915 12.050761,3.54941 10.032911,2.57025 21.029838,8.62667 24.28164,5.75831 3.251837,-2.86837 -2.24535,-7.27724 -12.278271,-9.84749 -10.032921,-2.57025 -20.802321,-2.32859 -24.05413,0.53977 z"
       sodipodi:nodetypes="sssss"
       inkscape:export-xdpi="17.969999"
       inkscape:export-ydpi="17.969999" />
    <path
       id="rect4082"
       style="fill:url(#linearGradient4101);fill-opacity:1;fill-rule:evenodd;stroke:#000000;stroke-width:2.44621;stroke-miterlimit:4;stroke-dasharray:none;stroke-opacity:0.37751"
       d="m 79.658642,188.49888 54.279778,-0.63932 c 3.76082,-0.0443 1.26622,3.78907 0.15033,7.21847 l -3.55348,10.92067 c -1.65461,5.624 -11.80198,2.40047 -22.17153,2.35884 -11.279019,-0.0453 -22.888426,1.77846 -25.872011,-0.52265 l -3.922304,-10.3558 c -1.289811,-3.40541 -2.671593,-8.93593 1.089217,-8.98021 z"
       sodipodi:nodetypes="ssscscss"
       inkscape:export-xdpi="17.02"
       inkscape:export-ydpi="17.02" />
    <path
       style="fill:#00222b;stroke:#000000;stroke-width:0.4;stroke-linecap:butt;stroke-linejoin:miter;stroke-miterlimit:4;stroke-dasharray:none;stroke-opacity:1"
       d="m 81.117663,200.51533 c 36.285697,0 0,0 0,0 z"
       id="path4085"
       inkscape:export-xdpi="17.02"
       inkscape:export-ydpi="17.02" />
    <path
       id="path4045-0"
       style="fill:#8fcaff;fill-opacity:1;fill-rule:evenodd;stroke:#1f6668;stroke-width:0.926;stroke-miterlimit:4;stroke-dasharray:none;stroke-opacity:0.987952"
       d="m -105.83799,43.792097 c 2.54964,6.05338 -2.09866,1.37321 -12.10316,3.9283 -10.00448,2.5551 -21.57667,11.37791 -24.12632,5.32454 -2.54966,-6.0534 3.49368,-13.03195 13.49818,-15.58705 10.00449,-2.5551 20.18164,0.28082 22.7313,6.33421 z"
       sodipodi:nodetypes="sssss"
       inkscape:export-xdpi="17.689013"
       inkscape:export-ydpi="17.689013" />
    <path
       id="rect4082-4"
       style="fill:url(#linearGradient4197);fill-opacity:1;fill-rule:evenodd;stroke:#000000;stroke-width:1.969;stroke-miterlimit:4;stroke-dasharray:none;stroke-opacity:0.37751"
       d="m -170.05599,70.343787 51.37589,-0.43762 c 3.55962,-0.0303 1.19848,2.59366 0.14229,4.94113 l -3.36338,7.47533 c -1.56609,3.84969 -11.17059,1.64315 -20.98538,1.61465 -10.67561,-0.031 -21.66393,1.21738 -24.48789,-0.35776 l -3.71247,-7.08867 c -1.22081,-2.33104 -2.52867,-6.11675 1.03094,-6.14706 z"
       sodipodi:nodetypes="ssscscss"
       inkscape:export-xdpi="17.66"
       inkscape:export-ydpi="17.66" />
    <path
       style="fill:#00222b;stroke:#000000;stroke-width:0.4;stroke-linecap:butt;stroke-linejoin:miter;stroke-miterlimit:4;stroke-dasharray:none;stroke-opacity:1"
       d="m -170.54947,78.439007 c 36.2857,0 0,0 0,0 z"
       id="path4085-2"
       inkscape:export-xdpi="17.66"
       inkscape:export-ydpi="17.66" />
    <ellipse
       style="fill:#005274;fill-opacity:1;fill-rule:evenodd;stroke:#40638d;stroke-width:0.4;stroke-miterlimit:4;stroke-dasharray:none;stroke-opacity:0"
       id="path4115-7-1"
       cx="-126.6326"
       cy="40.982563"
       rx="4.1577382"
       ry="3.4017856"
       inkscape:export-xdpi="17.689013"
       inkscape:export-ydpi="17.689013" />
    <path
       id="path4045-7-3"
       style="fill:#c8b7be;fill-opacity:1;fill-rule:evenodd;stroke:#1e6668;stroke-width:0.681113;stroke-miterlimit:4;stroke-dasharray:none;stroke-opacity:1"
       d="m 142.5645,161.68196 c 3.18612,2.86837 -1.97708,0.97915 -11.80737,3.54941 -9.83027,2.57025 -20.60508,8.62667 -23.7912,5.75831 -3.18616,-2.86837 2.2,-7.27724 12.03027,-9.84749 9.83028,-2.57025 20.38217,-2.32859 23.5683,0.53977 z"
       sodipodi:nodetypes="sssss"
       inkscape:export-xdpi="17.969999"
       inkscape:export-ydpi="17.969999" />
    <rect
       style="fill:#114644;fill-rule:evenodd;stroke:#000000;stroke-width:0.369001;stroke-linecap:round;stroke-linejoin:round;paint-order:stroke markers fill"
       id="rect1952"
       width="130.0238"
       height="21.166666"
       x="-212.42267"
       y="238.04939"
       ry="0.20045204" />
    <path
       id="path4016-7"
       style="fill:url(#radialGradient4153-0);fill-opacity:1;fill-rule:evenodd;stroke:#000000;stroke-width:1.1;stroke-miterlimit:4;stroke-dasharray:none;stroke-opacity:0.911647"
       d="m -423.23204,-11.219833 c -8.35002,30.123479 -27.4708,68.507497 -49.38106,98.556316 l -0.039,0.8852 a 59.021726,60.030184 1.1731502 0 0 -11.02892,33.845407 59.021726,60.030184 1.1731502 0 0 57.91205,61.09695 59.021726,60.030184 1.1731502 0 0 60.11139,-58.94312 59.021726,60.030184 1.1731502 0 0 -10.62641,-35.488427 l 0.49621,-0.51185 c 0,0 -42.75896,-51.399307 -47.44427,-99.440476 z"
       inkscape:export-xdpi="16.059999"
       inkscape:export-ydpi="16.059999" />
    <path
       id="path4045-7-7"
       style="fill:#8fcaff;fill-opacity:1;fill-rule:evenodd;stroke:#000000;stroke-width:0.6;stroke-miterlimit:4;stroke-dasharray:none;stroke-opacity:1"
       d="m -352.43918,35.490905 c -3.2518,2.86837 2.01784,0.97915 12.05076,3.54941 10.03291,2.57025 21.02984,8.62667 24.28164,5.75831 3.25184,-2.86837 -2.24535,-7.27724 -12.27827,-9.84749 -10.03292,-2.57025 -20.80232,-2.32859 -24.05413,0.53977 z"
       sodipodi:nodetypes="sssss"
       inkscape:export-xdpi="17.969999"
       inkscape:export-ydpi="17.969999" />
    <path
       id="rect4082-1"
       style="fill:url(#linearGradient4101-9);fill-opacity:1;fill-rule:evenodd;stroke:#000000;stroke-width:2.44621;stroke-miterlimit:4;stroke-dasharray:none;stroke-opacity:0.37751"
       d="m -335.85519,61.587918 54.27977,-0.63932 c 3.76082,-0.0443 1.26622,3.78907 0.15033,7.21847 l -3.55347,10.92067 c -1.65461,5.624 -11.80198,2.40047 -22.17153,2.35884 -11.27902,-0.0453 -22.88843,1.77846 -25.87201,-0.52265 l -3.92231,-10.3558 c -1.28981,-3.40541 -2.67159,-8.93593 1.08922,-8.98021 z"
       sodipodi:nodetypes="ssscscss"
       inkscape:export-xdpi="17.02"
       inkscape:export-ydpi="17.02" />
    <path
       style="fill:#00222b;stroke:#000000;stroke-width:0.4;stroke-linecap:butt;stroke-linejoin:miter;stroke-miterlimit:4;stroke-dasharray:none;stroke-opacity:1"
       d="m -334.39617,73.604368 c 36.2857,0 0,0 0,0 z"
       id="path4085-5"
       inkscape:export-xdpi="17.02"
       inkscape:export-ydpi="17.02" />
    <path
       id="path4045-7-3-4"
       style="fill:#8fcaff;fill-opacity:1;fill-rule:evenodd;stroke:#000000;stroke-width:0.6;stroke-miterlimit:4;stroke-dasharray:none;stroke-opacity:1"
       d="m -272.94934,34.770995 c 3.18612,2.86837 -1.97708,0.97915 -11.80736,3.54941 -9.83027,2.57025 -20.60508,8.62667 -23.7912,5.75831 -3.18616,-2.86837 2.2,-7.27724 12.03027,-9.84749 9.83028,-2.57025 20.38216,-2.32859 23.56829,0.53977 z"
       sodipodi:nodetypes="sssss"
       inkscape:export-xdpi="17.969999"
       inkscape:export-ydpi="17.969999" />
    <ellipse
       style="fill:#000000;fill-opacity:0.42971888;fill-rule:evenodd;stroke:#60cdfb;stroke-width:0;stroke-linecap:round;stroke-linejoin:round;stroke-miterlimit:4;stroke-dasharray:none;stroke-opacity:1;paint-order:stroke markers fill;filter:url(#filter2225)"
       id="path2011"
       cx="104.61385"
       cy="246.54085"
       rx="60.402912"
       ry="6.9490075"
       inkscape:export-xdpi="17.66"
       inkscape:export-ydpi="17.66" />
    <path
       id="rect2229"
       style="fill:#000000;fill-opacity:0.429719;fill-rule:evenodd;stroke:#60cdfb;stroke-width:0;stroke-linecap:round;stroke-linejoin:round;stroke-miterlimit:4;stroke-dasharray:none;stroke-opacity:1;paint-order:stroke markers fill"
       d="m 352.72321,313.21488 37.27255,11.91355 30.19385,2.24021 c 11.35589,8.73233 19.10822,24.0956 58.15421,-18.12495 -5.24068,-0.48052 -26.87288,41.71195 -30.57418,77.62325 -3.29387,31.9583 54.66633,43.26395 4.81161,43.68398 l -16.5456,-10.30025 c -19.55796,-10.7346 16.5456,10.30025 16.5456,10.30025 v 0 l -29.35943,6.76342 c 3.67531,-1.73327 12.37975,16.2976 8.95163,11.78458 -8.95163,-11.78458 -17.53985,23.32964 -24.87482,22.85063 -13.42659,-0.87681 -24.31826,-31.73095 -43.20032,11.84004 l 25.17807,-63.16663 c -7.68772,1.33784 -25.45116,-13.2345 -24.86711,-34.99166 0.67194,-25.03064 18.64509,-58.6071 -11.68606,-72.41642 z"
       sodipodi:nodetypes="ccccscccccssccsc" />
    <path
       id="rect2232"
       style="fill:#204aad;fill-opacity:0.248996;fill-rule:evenodd;stroke:#60cdfb;stroke-width:0;stroke-linecap:round;stroke-linejoin:round;stroke-miterlimit:4;stroke-dasharray:none;stroke-opacity:1;paint-order:stroke markers fill"
       d="m -204.1096,-9.1158587 31.3888,2.4727172 c -7.85144,-0.8961019 -18.41723,-1.8098021 -31.3888,-2.4727172 z m 18.20045,2.4727172 -76.05892,235.4223215 a 91.406172,26.726954 0 0 0 -3.71037,7.537 91.406172,26.726954 0 0 0 0.32815,2.26188 c -0.27295,0.43926 -0.41238,0.88047 -0.41238,1.32188 6e-5,1.4039 1.36044,2.75913 3.88038,4.038 a 91.406172,26.726954 0 0 0 87.61016,19.10529 91.406172,26.726954 0 0 0 86.562155,-18.14256 c 3.89332,-1.55345 6.03211,-3.23885 6.03219,-5.00073 -2.4e-4,-0.58797 -0.24289,-1.17524 -0.72708,-1.75855 0.007,-0.0295 0.0125,-0.0597 0.006,-0.092 l -0.4713,-1.46606 a 91.406172,26.726954 0 0 0 0.005,-0.26717 91.406172,26.726954 0 0 0 -1.77612,-5.24205 L -160.17066,-3.8479634 c -1.56697,0.1412931 -3.04401,0.2733337 -4.88291,0.4408001 3.16653,0.5308963 3.74422,0.6477889 -0.26924,0.024805 -15.60363,1.4211821 -36.53391,3.3389712 -2.03812,-0.3193606 -3.64987,-0.5720702 -8.93492,-1.4075095 -18.54822,-2.9414226 z m 18.54822,2.9414226 c 0.70435,0.1103958 1.51432,0.2380517 2.03812,0.3193603 0.0885,-0.00807 0.18108,-0.016775 0.26924,-0.024805 -0.57113,-0.095758 -1.29316,-0.21469 -1.98179,-0.329179 -0.1035,0.010971 -0.22304,0.023751 -0.32557,0.034624 z m 0.32557,-0.034623 c 2.12154,-0.224882 4.12248,-0.4373067 6.67348,-0.7053831 l 0.19122,0.593762 c 3.90173,-0.3518206 6.99415,-0.6248735 7.00214,-0.593762 l -31.54172,-2.2014165 c 0,0 11.03186,1.802371 17.67488,2.9067996 z"
       inkscape:export-xdpi="16.557579"
       inkscape:export-ydpi="16.557579" />
    <ellipse
       style="fill:#204aad;fill-opacity:0.180723;fill-rule:evenodd;stroke:#60cdfb;stroke-width:0;stroke-linecap:round;stroke-linejoin:round;stroke-miterlimit:4;stroke-dasharray:none;stroke-opacity:1;paint-order:stroke markers fill"
       id="path2241"
       cx="105.22371"
       cy="244.86191"
       rx="85.526253"
       ry="20.312485"
       inkscape:export-xdpi="16.557579"
       inkscape:export-ydpi="16.557579" />
    <path
       id="path4016-7-6-1"
       style="fill:url(#radialGradient12547-5);fill-opacity:1;fill-rule:evenodd;stroke:#000000;stroke-width:0;stroke-miterlimit:4;stroke-dasharray:none;stroke-opacity:0.911647"
       d="m -304.30348,-302.70111 c -0.0329,0 -0.0646,0.002 -0.0955,0.007 0.0321,-0.004 0.0639,-0.007 0.0955,-0.007 z m -0.0955,0.007 c -9.91389,1.2403 -42.46543,193.95556 -34.77773,23.78977 -0.58848,19.60441 -26.98455,87.15219 -28.78844,117.5685 l -0.0505,1.26959 c -8.97312,14.18308 -13.93123,31.11199 -14.21834,48.54663 -0.78296,47.54638 32.64328,86.782 74.65953,87.63518 8.36186,0.16971 16.43317,-1.19532 24.00552,-3.86291 1.50356,0.10874 3.02183,0.14903 4.5533,0.11606 31.79159,-0.68557 57.08344,-32.21431 56.49101,-70.421437 -0.21722,-14.010063 -3.96878,-27.613873 -10.7583,-39.011053 l -0.038,-1.02026 c -1.36492,-24.44186 -21.33735,-78.72112 -21.78261,-94.47474 1.40756,33.08866 1.03173,49.0988 -0.45221,54.34994 -2.99953,-5.62071 -6.30039,-12.25727 -9.73096,-19.48964 -6.00475,-22.31718 -12.86615,-53.98296 -16.20353,-53.98296 1.3158,0 0.37291,5.01387 -2.00152,12.9262 -13.66504,-32.76463 -24.50134,-63.41992 -20.90733,-63.93888 z"
       inkscape:export-xdpi="14.311379"
       inkscape:export-ydpi="14.311379" />
    <path
       id="path4016-7-6"
       style="fill:url(#radialGradient12547);fill-opacity:1;fill-rule:evenodd;stroke:#000000;stroke-width:0;stroke-miterlimit:4;stroke-dasharray:none;stroke-opacity:0.911647"
       d="m 105.92843,2.6473362 c -0.0267,0 -0.0524,0.002 -0.0775,0.006 0.026,-0.003 0.0519,-0.006 0.0775,-0.006 z m -0.0775,0.006 C 97.813783,3.6649746 71.424403,160.8514 77.656793,22.057252 77.179713,38.047425 55.780523,93.142109 54.318103,117.95083 l -0.0409,1.03553 c -7.27448,11.56832 -11.29399,25.37622 -11.52674,39.59668 -0.63476,38.7808 26.46377,70.78302 60.526147,71.4789 6.77892,0.13843 13.3223,-0.97495 19.46117,-3.15074 1.21895,0.0887 2.44979,0.12155 3.69136,0.0946 25.77332,-0.55918 46.27732,-26.27533 45.79703,-57.43866 -0.17611,-11.42719 -3.21747,-22.52305 -8.72172,-31.81908 l -0.0308,-0.83217 c -1.10654,-19.93578 -17.2981,-64.208016 -17.65907,-77.057323 1.14111,26.988428 0.83641,40.046846 -0.36661,44.329883 -2.43171,-4.584457 -5.1077,-9.997457 -7.88885,-15.896441 -4.86802,-18.202751 -10.43054,-44.030684 -13.13614,-44.030684 1.06671,0 0.30232,4.08952 -1.62263,10.543143 C 111.72216,28.080277 102.93721,3.0765562 105.85087,2.6532662 Z"
       inkscape:export-xdpi="16.672462"
       inkscape:export-ydpi="16.672462" />
    <path
       id="path4016-1"
       style="fill:url(#radialGradient4153-08);fill-opacity:1;fill-rule:evenodd;stroke:#000000;stroke-width:0.600001;stroke-opacity:0.911647"
       d="m -1156.0343,544.32935 c -8.3419,30.15763 -27.444,68.58518 -49.3329,98.66807 l -0.039,0.88621 a 58.964287,60.098212 1.0476859 0 0 -11.0182,33.88379 58.964287,60.098212 1.0476859 0 0 57.8557,61.16623 58.964287,60.098212 1.0476859 0 0 60.0528,-59.00996 58.964287,60.098212 1.0476859 0 0 -10.616,-35.52867 l 0.4957,-0.51243 c 0,0 -42.7173,-51.4576 -47.3981,-99.55324 z"
       inkscape:export-xdpi="16.059999"
       inkscape:export-ydpi="16.059999" />
    <path
       id="path4045-7-73"
       style="fill:#c8b7be;fill-opacity:1;fill-rule:evenodd;stroke:#1e6668;stroke-width:0.688097;stroke-miterlimit:4;stroke-dasharray:none;stroke-opacity:1"
       d="m -1201.0623,679.70651 c -3.2519,2.86837 2.0178,0.97915 12.0507,3.54941 10.0329,2.57025 21.0299,8.62667 24.2817,5.75831 3.2518,-2.86837 -2.2454,-7.27724 -12.2783,-9.84749 -10.0329,-2.57025 -20.8023,-2.32859 -24.0541,0.53977 z"
       sodipodi:nodetypes="sssss"
       inkscape:export-xdpi="17.969999"
       inkscape:export-ydpi="17.969999" />
    <path
       id="rect4082-12"
       style="fill:url(#linearGradient996);fill-opacity:1;fill-rule:evenodd;stroke:#000000;stroke-width:2.44621;stroke-miterlimit:4;stroke-dasharray:none;stroke-opacity:0.37751"
       d="m -1184.4784,705.80352 54.2798,-0.63932 c 3.7608,-0.0443 1.2662,3.78907 0.1504,7.21847 l -3.5535,10.92067 c -1.6546,5.624 -11.802,2.40047 -22.1716,2.35884 -11.279,-0.0453 -22.8884,1.77846 -25.872,-0.52265 l -3.9223,-10.3558 c -1.2898,-3.40541 -2.6716,-8.93593 1.0892,-8.98021 z"
       sodipodi:nodetypes="ssscscss"
       inkscape:export-xdpi="17.02"
       inkscape:export-ydpi="17.02" />
    <path
       style="fill:#00222b;stroke:#000000;stroke-width:0.4;stroke-linecap:butt;stroke-linejoin:miter;stroke-miterlimit:4;stroke-dasharray:none;stroke-opacity:1"
       d="m -1183.0193,717.81997 c 36.2857,0 0,0 0,0 z"
       id="path4085-8"
       inkscape:export-xdpi="17.02"
       inkscape:export-ydpi="17.02" />
    <path
       id="path4045-7-3-6"
       style="fill:#c8b7be;fill-opacity:1;fill-rule:evenodd;stroke:#1e6668;stroke-width:0.681113;stroke-miterlimit:4;stroke-dasharray:none;stroke-opacity:1"
       d="m -1121.5725,678.9866 c 3.1861,2.86837 -1.9771,0.97915 -11.8074,3.54941 -9.8302,2.57025 -20.6051,8.62667 -23.7912,5.75831 -3.1861,-2.86837 2.2,-7.27724 12.0303,-9.84749 9.8303,-2.57025 20.3822,-2.32859 23.5683,0.53977 z"
       sodipodi:nodetypes="sssss"
       inkscape:export-xdpi="17.969999"
       inkscape:export-ydpi="17.969999" />
    <ellipse
       style="fill:#000000;fill-opacity:0.429719;fill-rule:evenodd;stroke:#60cdfb;stroke-width:0;stroke-linecap:round;stroke-linejoin:round;stroke-miterlimit:4;stroke-dasharray:none;stroke-opacity:1;paint-order:stroke markers fill;filter:url(#filter2225-6)"
       id="path2011-9"
       cx="-1159.5232"
       cy="763.84546"
       rx="60.402912"
       ry="6.9490075"
       inkscape:export-xdpi="17.66"
       inkscape:export-ydpi="17.66" />
    <ellipse
       style="fill:#204aad;fill-opacity:0.180723;fill-rule:evenodd;stroke:#60cdfb;stroke-width:0;stroke-linecap:round;stroke-linejoin:round;stroke-miterlimit:4;stroke-dasharray:none;stroke-opacity:1;paint-order:stroke markers fill"
       id="path2241-1"
       cx="-1158.9133"
       cy="762.16656"
       rx="85.526253"
       ry="20.312485"
       inkscape:export-xdpi="16.557579"
       inkscape:export-ydpi="16.557579" />
    <path
       id="path4016-7-6-0"
       style="fill:url(#radialGradient12547-0);fill-opacity:1;fill-rule:evenodd;stroke:#000000;stroke-width:0;stroke-miterlimit:4;stroke-dasharray:none;stroke-opacity:0.911647"
       d="m -1158.2086,519.95198 c -0.027,0 -0.052,0.002 -0.078,0.006 0.026,-0.003 0.052,-0.006 0.078,-0.006 z m -0.078,0.006 c -8.0371,1.01163 -34.4265,158.19806 -28.1941,19.40391 -0.4771,15.99017 -21.8763,71.08486 -23.3387,95.89358 l -0.041,1.03553 c -7.2745,11.56832 -11.294,25.37622 -11.5267,39.59668 -0.6348,38.7808 26.4637,70.78302 60.5261,71.4789 6.7789,0.13843 13.3223,-0.97495 19.4612,-3.15074 1.2189,0.0887 2.4498,0.12155 3.6913,0.0946 25.7734,-0.55918 46.2774,-26.27533 45.7971,-57.43866 -0.1761,-11.42719 -3.2175,-22.52305 -8.7218,-31.81908 l -0.031,-0.83217 c -1.1065,-19.93578 -17.2981,-64.20802 -17.659,-77.05732 1.1411,26.98842 0.8364,40.04684 -0.3666,44.32988 -2.4317,-4.58446 -5.1077,-9.99746 -7.8889,-15.89644 -4.868,-18.20275 -10.4305,-44.03069 -13.1361,-44.03069 1.0667,0 0.3023,4.08952 -1.6227,10.54315 -11.0781,-26.72419 -19.8631,-51.72791 -16.9494,-52.1512 z"
       inkscape:export-xdpi="16.672462"
       inkscape:export-ydpi="16.672462" />
    <rect
       style="fill:#31bffb;fill-opacity:1;fill-rule:evenodd;stroke:#000000;stroke-width:0;stroke-linecap:round;stroke-linejoin:round;stroke-opacity:0.176707;paint-order:stroke fill markers"
       id="rect1008"
       width="5.3453908"
       height="496.05225"
       x="-1160.3213"
       y="43.514629" />
  </g>
</svg>
